# xmcd CD database file
#
# Track frame offsets:
#	150
#	20840
#	39420
#	59947
#	75232
#	88297
#	117792
#	132085
#	149220
#	165107
#
# Disc length: 2442 seconds
#
# Revision: 0
# Processed by: cddbd v1.5PL3 Copyright (c) Steve Scherf et al.
# Submitted via: CDex 1.51
#
DISCID=8709880a
DTITLE=Determinations - This Is Determinations
DYEAR=1999
DGENRE=Ska
TTITLE0=New Day
TTITLE1=Yin and Yang
TTITLE2=Sayonara
TTITLE3=Four Finger
TTITLE4=Perfidia
TTITLE5=Wherever You May Be
TTITLE6=Despaired
TTITLE7=Beneath The Ska Moon
TTITLE8=Top Of The World
TTITLE9=Love
EXTD=YEAR: 1999
EXTT0=
EXTT1=
EXTT2=
EXTT3=
EXTT4=
EXTT5=
EXTT6=
EXTT7=
EXTT8=
EXTT9=
PLAYORDER=
